<svg width="103" height="6" viewBox="0 0 103 6" fill="none" xmlns="http://www.w3.org/2000/svg">
<path d="M0.333333 3C0.333333 4.47276 1.52724 5.66667 3 5.66667C4.47276 5.66667 5.66667 4.47276 5.66667 3C5.66667 1.52724 4.47276 0.333333 3 0.333333C1.52724 0.333333 0.333333 1.52724 0.333333 3ZM3 3.5H4.92308V2.5H3V3.5ZM8.76923 3.5H12.6154V2.5H8.76923V3.5ZM16.4615 3.5H20.3077V2.5H16.4615V3.5ZM24.1538 3.5H28V2.5H24.1538V3.5ZM31.8462 3.5H35.6923V2.5H31.8462V3.5ZM39.5385 3.5H43.3846V2.5H39.5385V3.5ZM47.2308 3.5H51.0769V2.5H47.2308V3.5ZM54.9231 3.5H58.7692V2.5H54.9231V3.5ZM62.6154 3.5H66.4615V2.5H62.6154V3.5ZM70.3077 3.5H74.1538V2.5H70.3077V3.5ZM78 3.5H81.8461V2.5H78V3.5ZM85.6923 3.5H89.5385V2.5H85.6923V3.5ZM93.3846 3.5H97.2308V2.5H93.3846V3.5ZM101.077 3.5H103V2.5H101.077V3.5Z" fill="#7A7A7A"/>
</svg>
