<svg width="103" height="6" viewBox="0 0 103 6" fill="none" xmlns="http://www.w3.org/2000/svg">
<path d="M97.3333 3C97.3333 4.47276 98.5272 5.66667 100 5.66667C101.473 5.66667 102.667 4.47276 102.667 3C102.667 1.52724 101.473 0.333333 100 0.333333C98.5272 0.333333 97.3333 1.52724 97.3333 3ZM0 3.5H1.92308V2.5H0V3.5ZM5.76923 3.5H9.61539V2.5H5.76923V3.5ZM13.4615 3.5H17.3077V2.5H13.4615V3.5ZM21.1538 3.5H25V2.5H21.1538V3.5ZM28.8462 3.5H32.6923V2.5H28.8462V3.5ZM36.5385 3.5H40.3846V2.5H36.5385V3.5ZM44.2308 3.5H48.0769V2.5H44.2308V3.5ZM51.9231 3.5H55.7692V2.5H51.9231V3.5ZM59.6154 3.5H63.4615V2.5H59.6154V3.5ZM67.3077 3.5H71.1538V2.5H67.3077V3.5ZM75 3.5H78.8461V2.5H75V3.5ZM82.6923 3.5H86.5385V2.5H82.6923V3.5ZM90.3846 3.5H94.2308V2.5H90.3846V3.5ZM98.0769 3.5H100V2.5H98.0769V3.5Z" fill="#7A7A7A"/>
</svg>
