<svg width="65" height="24" viewBox="0 0 65 24" fill="none" xmlns="http://www.w3.org/2000/svg">
<g clip-path="url(#clip0_81_531)">
<path d="M62.3381 14.7097V12.6441V8.51613H56.1476H52.0217V6.45058H62.3381V2.32258H52.0217H45.8312V6.45058V8.51613V12.6441H52.0217H56.1476V14.7097H45.8312V18.8377H56.1476H62.3381V14.7097ZM63.9693 13.4183V20.129C63.9693 20.2653 63.9136 20.3985 63.8176 20.4945C63.7217 20.5905 63.5886 20.6462 63.4524 20.6462H56.745V21.6774H64.4831C64.6193 21.6774 64.7524 21.6217 64.8483 21.5257C64.9443 21.4297 65 21.2965 65 21.1603V13.4183H63.9693ZM8.255 0H0.516905C0.380714 0 0.247619 0.0557419 0.151667 0.151742C0.0557143 0.247742 0 0.380903 0 0.517161V8.2591H1.03071V1.54839C1.03071 1.41213 1.08643 1.27897 1.18238 1.18297C1.27833 1.08697 1.41143 1.03123 1.54762 1.03123H8.255V0ZM14.8788 24H19.0048V14.7097H14.8788V24ZM18.491 2.32258H8.68833V6.45058H14.8788V12.6441H19.0048V2.83665C19.0048 2.70039 18.949 2.56723 18.8531 2.47123C18.7571 2.37523 18.624 2.31948 18.4879 2.31948L18.491 2.32258ZM6.6269 2.32258H3.01476C2.87857 2.32258 2.74548 2.37832 2.64952 2.47432C2.55357 2.57032 2.49786 2.70348 2.49786 2.83974V18.3236C2.49786 18.4599 2.55357 18.593 2.64952 18.689C2.74548 18.785 2.87857 18.8408 3.01476 18.8408H12.8174V14.7128H6.6269V2.32568V2.32258ZM8.69143 12.6441H12.8174V8.51613H8.69143V12.6441ZM9.72214 9.54735H11.7867V11.6129H9.72214V9.54735ZM21.0724 2.32258V6.45058H33.4533V8.51613H25.1983H21.0724V12.6441V18.8377H25.1983V12.7061L31.3888 18.8377H37.5793L31.1195 12.6441H33.4502H37.5762V8.51613V6.45058V2.32258H33.4502H21.0693H21.0724ZM39.6438 18.8377H43.7698V2.32258H39.6438V18.8377Z" fill="black"/>
</g>
<defs>
<clipPath id="clip0_81_531">
<rect width="65" height="24" fill="white"/>
</clipPath>
</defs>
</svg>
